G04 #@! TF.FileFunction,Copper,L2,Bot,Signal*
%FSLAX46Y46*%
G04 Gerber Fmt 4.6, Leading zero omitted, Abs format (unit mm)*
G04 Created by KiCad (PCBNEW 4.0.7-e2-6376~58~ubuntu16.04.1) date Sun Mar 17 12:09:54 2019*
%MOMM*%
%LPD*%
G01*
G04 APERTURE LIST*
%ADD10C,0.100000*%
%ADD11C,1.600000*%
%ADD12R,2.200000X2.200000*%
%ADD13O,2.200000X2.200000*%
%ADD14R,1.700000X1.700000*%
%ADD15O,1.700000X1.700000*%
%ADD16R,2.400000X2.400000*%
%ADD17C,2.400000*%
%ADD18C,2.500000*%
%ADD19C,3.000000*%
%ADD20C,1.000000*%
%ADD21R,1.000000X1.000000*%
%ADD22O,1.600000X1.600000*%
%ADD23R,2.400000X1.600000*%
%ADD24O,2.400000X1.600000*%
%ADD25C,1.524000*%
%ADD26R,1.600000X2.400000*%
%ADD27O,1.600000X2.400000*%
%ADD28R,1.600000X1.600000*%
%ADD29C,0.600000*%
%ADD30C,0.350000*%
%ADD31C,0.700000*%
G04 APERTURE END LIST*
D10*
D11*
X131572000Y-45720000D03*
X136572000Y-45720000D03*
X142494000Y-51816000D03*
X142494000Y-46816000D03*
X117348000Y-64008000D03*
X117348000Y-59008000D03*
X112776000Y-51308000D03*
X112776000Y-46308000D03*
D12*
X146558000Y-44704000D03*
D13*
X146558000Y-54864000D03*
D12*
X183642000Y-26670000D03*
D13*
X173482000Y-26670000D03*
D14*
X142748000Y-26924000D03*
D15*
X145288000Y-26924000D03*
D14*
X134620000Y-26924000D03*
D15*
X137160000Y-26924000D03*
D14*
X129794000Y-26924000D03*
D15*
X127254000Y-26924000D03*
D16*
X117348000Y-34544000D03*
D17*
X117348000Y-39544000D03*
D14*
X122174000Y-26924000D03*
D15*
X119634000Y-26924000D03*
D16*
X182626000Y-59690000D03*
D17*
X182626000Y-54690000D03*
D18*
X175052000Y-33446000D03*
D19*
X175052000Y-45646000D03*
X187102000Y-45696000D03*
D18*
X187052000Y-33446000D03*
D19*
X181102000Y-31496000D03*
D20*
X180594000Y-67310000D03*
X179324000Y-68580000D03*
D21*
X179324000Y-66040000D03*
D11*
X135128000Y-41656000D03*
D22*
X124968000Y-41656000D03*
D11*
X147574000Y-40894000D03*
D22*
X137414000Y-40894000D03*
D11*
X135128000Y-37338000D03*
D22*
X124968000Y-37338000D03*
D11*
X124968000Y-33274000D03*
D22*
X135128000Y-33274000D03*
D11*
X142748000Y-56134000D03*
D22*
X142748000Y-66294000D03*
D11*
X121158000Y-67056000D03*
D22*
X121158000Y-56896000D03*
D11*
X116078000Y-53594000D03*
D22*
X126238000Y-53594000D03*
D11*
X127762000Y-46228000D03*
D22*
X117602000Y-46228000D03*
D11*
X125984000Y-50292000D03*
D22*
X115824000Y-50292000D03*
D11*
X173228000Y-70104000D03*
D22*
X173228000Y-59944000D03*
D11*
X132842000Y-69850000D03*
D22*
X122682000Y-69850000D03*
D11*
X124968000Y-56642000D03*
D22*
X124968000Y-66802000D03*
D11*
X135890000Y-69850000D03*
D22*
X146050000Y-69850000D03*
D23*
X137922000Y-65532000D03*
D24*
X130302000Y-50292000D03*
X137922000Y-62992000D03*
X130302000Y-52832000D03*
X137922000Y-60452000D03*
X130302000Y-55372000D03*
X137922000Y-57912000D03*
X130302000Y-57912000D03*
X137922000Y-55372000D03*
X130302000Y-60452000D03*
X137922000Y-52832000D03*
X130302000Y-62992000D03*
X137922000Y-50292000D03*
X130302000Y-65532000D03*
D25*
X152352000Y-25114000D03*
X168352000Y-25114000D03*
X152352000Y-53114000D03*
X160352000Y-53114000D03*
D26*
X152908000Y-68326000D03*
D27*
X168148000Y-60706000D03*
X155448000Y-68326000D03*
X165608000Y-60706000D03*
X157988000Y-68326000D03*
X163068000Y-60706000D03*
X160528000Y-68326000D03*
X160528000Y-60706000D03*
X163068000Y-68326000D03*
X157988000Y-60706000D03*
X165608000Y-68326000D03*
X155448000Y-60706000D03*
X168148000Y-68326000D03*
X152908000Y-60706000D03*
D14*
X112776000Y-56134000D03*
D15*
X112776000Y-58674000D03*
X112776000Y-61214000D03*
D11*
X149098000Y-62230000D03*
X149098000Y-67230000D03*
D28*
X145796000Y-34036000D03*
D11*
X142296000Y-34036000D03*
D29*
X137160000Y-43942000D03*
X128016000Y-51308000D03*
X140208000Y-51308000D03*
X140208000Y-48768000D03*
X165354000Y-34036000D03*
X163068000Y-71882000D03*
X169672000Y-39116000D03*
X123444000Y-46228000D03*
D30*
X142494000Y-44958000D02*
X142494000Y-44704000D01*
X141478000Y-43942000D02*
X142494000Y-44958000D01*
X137160000Y-43942000D02*
X141478000Y-43942000D01*
X126238000Y-53594000D02*
X126238000Y-53086000D01*
X126238000Y-53086000D02*
X128016000Y-51308000D01*
X142748000Y-26924000D02*
X142748000Y-33584000D01*
X142748000Y-33584000D02*
X142296000Y-34036000D01*
X147574000Y-40894000D02*
X147574000Y-38862000D01*
X142296000Y-36632000D02*
X142296000Y-34036000D01*
X143510000Y-37846000D02*
X142296000Y-36632000D01*
X146558000Y-37846000D02*
X143510000Y-37846000D01*
X147574000Y-38862000D02*
X146558000Y-37846000D01*
X124968000Y-33274000D02*
X124968000Y-30226000D01*
X122174000Y-28702000D02*
X122174000Y-26924000D01*
X122936000Y-29464000D02*
X122174000Y-28702000D01*
X124206000Y-29464000D02*
X122936000Y-29464000D01*
X124968000Y-30226000D02*
X124206000Y-29464000D01*
X128524000Y-24384000D02*
X141732000Y-24384000D01*
X142748000Y-25400000D02*
X142748000Y-26924000D01*
X141732000Y-24384000D02*
X142748000Y-25400000D01*
X122174000Y-26924000D02*
X122174000Y-25400000D01*
X129794000Y-25654000D02*
X129794000Y-26924000D01*
X128524000Y-24384000D02*
X129794000Y-25654000D01*
X123190000Y-24384000D02*
X128524000Y-24384000D01*
X122174000Y-25400000D02*
X123190000Y-24384000D01*
X129794000Y-26924000D02*
X134620000Y-26924000D01*
X142494000Y-46816000D02*
X142494000Y-44704000D01*
X142494000Y-44704000D02*
X142494000Y-42164000D01*
X143764000Y-40894000D02*
X147574000Y-40894000D01*
X142494000Y-42164000D02*
X143764000Y-40894000D01*
X149098000Y-69088000D02*
X149098000Y-69342000D01*
X168148000Y-69850000D02*
X168148000Y-68326000D01*
X167386000Y-70612000D02*
X168148000Y-69850000D01*
X150368000Y-70612000D02*
X167386000Y-70612000D01*
X149098000Y-69342000D02*
X150368000Y-70612000D01*
X149098000Y-67230000D02*
X149098000Y-69088000D01*
X148336000Y-69850000D02*
X146050000Y-69850000D01*
X149098000Y-69088000D02*
X148336000Y-69850000D01*
X168148000Y-68326000D02*
X179070000Y-68326000D01*
X179070000Y-68326000D02*
X179324000Y-68580000D01*
X142160000Y-46482000D02*
X142494000Y-46816000D01*
X117348000Y-64008000D02*
X124206000Y-64008000D01*
X124968000Y-64770000D02*
X124968000Y-66802000D01*
X124206000Y-64008000D02*
X124968000Y-64770000D01*
X112776000Y-61214000D02*
X112776000Y-62484000D01*
X114300000Y-64008000D02*
X117348000Y-64008000D01*
X112776000Y-62484000D02*
X114300000Y-64008000D01*
X112776000Y-51308000D02*
X111252000Y-51308000D01*
X110998000Y-61214000D02*
X112776000Y-61214000D01*
X109982000Y-60198000D02*
X110998000Y-61214000D01*
X109982000Y-52578000D02*
X109982000Y-60198000D01*
X111252000Y-51308000D02*
X109982000Y-52578000D01*
X136572000Y-45720000D02*
X136572000Y-46402000D01*
X136572000Y-46402000D02*
X138176000Y-48006000D01*
X142494000Y-49022000D02*
X142494000Y-51816000D01*
X141478000Y-48006000D02*
X142494000Y-49022000D01*
X138176000Y-48006000D02*
X141478000Y-48006000D01*
X124968000Y-41656000D02*
X124968000Y-41910000D01*
X124968000Y-41910000D02*
X126746000Y-43688000D01*
X134540000Y-43688000D02*
X136572000Y-45720000D01*
X126746000Y-43688000D02*
X134540000Y-43688000D01*
X137922000Y-57912000D02*
X140716000Y-57912000D01*
X142748000Y-59944000D02*
X142748000Y-66294000D01*
X140716000Y-57912000D02*
X142748000Y-59944000D01*
X137922000Y-57912000D02*
X139446000Y-57912000D01*
X141224000Y-51816000D02*
X142494000Y-51816000D01*
X140462000Y-52578000D02*
X141224000Y-51816000D01*
X140462000Y-56896000D02*
X140462000Y-52578000D01*
X139446000Y-57912000D02*
X140462000Y-56896000D01*
X124968000Y-37338000D02*
X124968000Y-41656000D01*
X142748000Y-66294000D02*
X145288000Y-66294000D01*
X145288000Y-66294000D02*
X146304000Y-65278000D01*
X146304000Y-65278000D02*
X146304000Y-63246000D01*
X146304000Y-63246000D02*
X147320000Y-62230000D01*
X147320000Y-62230000D02*
X149098000Y-62230000D01*
X152908000Y-60706000D02*
X150622000Y-60706000D01*
X150622000Y-60706000D02*
X149098000Y-62230000D01*
X117348000Y-59008000D02*
X117348000Y-56896000D01*
X116586000Y-56134000D02*
X112776000Y-56134000D01*
X117348000Y-56896000D02*
X116586000Y-56134000D01*
X117602000Y-46228000D02*
X112856000Y-46228000D01*
X112856000Y-46228000D02*
X112776000Y-46308000D01*
X121158000Y-56896000D02*
X121158000Y-47244000D01*
X120142000Y-46228000D02*
X117602000Y-46228000D01*
X121158000Y-47244000D02*
X120142000Y-46228000D01*
X145288000Y-26924000D02*
X148844000Y-26924000D01*
X150876000Y-43942000D02*
X150114000Y-44704000D01*
X150876000Y-28956000D02*
X150876000Y-43942000D01*
X148844000Y-26924000D02*
X150876000Y-28956000D01*
X142748000Y-56134000D02*
X142748000Y-54102000D01*
X146558000Y-51816000D02*
X146558000Y-44704000D01*
X145542000Y-52832000D02*
X146558000Y-51816000D01*
X144018000Y-52832000D02*
X145542000Y-52832000D01*
X142748000Y-54102000D02*
X144018000Y-52832000D01*
X146558000Y-44704000D02*
X150114000Y-44704000D01*
X150114000Y-44704000D02*
X156210000Y-44704000D01*
X187052000Y-36722000D02*
X187052000Y-33446000D01*
X185928000Y-37846000D02*
X187052000Y-36722000D01*
X159258000Y-37846000D02*
X185928000Y-37846000D01*
X157226000Y-39878000D02*
X159258000Y-37846000D01*
X157226000Y-43688000D02*
X157226000Y-39878000D01*
X156210000Y-44704000D02*
X157226000Y-43688000D01*
X183642000Y-26670000D02*
X183642000Y-27178000D01*
X183642000Y-27178000D02*
X187052000Y-30588000D01*
X187052000Y-30588000D02*
X187052000Y-33446000D01*
X137160000Y-26924000D02*
X137160000Y-40640000D01*
X137160000Y-40640000D02*
X137414000Y-40894000D01*
X135128000Y-41656000D02*
X136652000Y-41656000D01*
X136652000Y-41656000D02*
X137414000Y-40894000D01*
X140208000Y-48768000D02*
X140208000Y-51308000D01*
X127254000Y-26924000D02*
X127254000Y-31496000D01*
X129032000Y-33274000D02*
X135128000Y-33274000D01*
X127254000Y-31496000D02*
X129032000Y-33274000D01*
X135128000Y-37338000D02*
X135128000Y-33274000D01*
D31*
X117348000Y-34544000D02*
X117348000Y-23622000D01*
X165354000Y-21590000D02*
X168352000Y-24588000D01*
X119380000Y-21590000D02*
X165354000Y-21590000D01*
X117348000Y-23622000D02*
X119380000Y-21590000D01*
X168352000Y-24588000D02*
X168352000Y-25114000D01*
X166910000Y-25114000D02*
X168352000Y-25114000D01*
X165354000Y-26670000D02*
X166910000Y-25114000D01*
X165354000Y-34036000D02*
X165354000Y-26670000D01*
D30*
X137922000Y-60452000D02*
X136144000Y-60452000D01*
X135128000Y-53848000D02*
X136144000Y-52832000D01*
X135128000Y-59436000D02*
X135128000Y-53848000D01*
X136144000Y-60452000D02*
X135128000Y-59436000D01*
X119634000Y-26924000D02*
X119634000Y-28448000D01*
X125984000Y-45974000D02*
X125984000Y-50292000D01*
X122428000Y-42418000D02*
X125984000Y-45974000D01*
X122428000Y-31242000D02*
X122428000Y-42418000D01*
X119634000Y-28448000D02*
X122428000Y-31242000D01*
X130302000Y-50292000D02*
X132080000Y-50292000D01*
X134620000Y-52832000D02*
X136144000Y-52832000D01*
X136144000Y-52832000D02*
X137922000Y-52832000D01*
X132080000Y-50292000D02*
X134620000Y-52832000D01*
X125984000Y-50292000D02*
X130302000Y-50292000D01*
D31*
X182626000Y-54690000D02*
X182626000Y-46990000D01*
X183920000Y-45696000D02*
X187102000Y-45696000D01*
X182626000Y-46990000D02*
X183920000Y-45696000D01*
D30*
X173228000Y-70104000D02*
X180086000Y-70104000D01*
X180594000Y-69596000D02*
X180594000Y-67310000D01*
X180086000Y-70104000D02*
X180594000Y-69596000D01*
X115824000Y-50292000D02*
X115824000Y-53340000D01*
X115824000Y-53340000D02*
X116078000Y-53594000D01*
X157988000Y-60706000D02*
X157988000Y-61722000D01*
X157988000Y-61722000D02*
X159258000Y-62992000D01*
X159258000Y-62992000D02*
X162306000Y-62992000D01*
X162306000Y-62992000D02*
X163068000Y-62230000D01*
X163068000Y-62230000D02*
X163068000Y-60706000D01*
X132842000Y-69850000D02*
X135890000Y-69850000D01*
X130302000Y-60452000D02*
X132080000Y-60452000D01*
X132842000Y-61214000D02*
X132842000Y-69850000D01*
X132080000Y-60452000D02*
X132842000Y-61214000D01*
X137922000Y-69342000D02*
X137922000Y-65532000D01*
X140462000Y-71882000D02*
X137922000Y-69342000D01*
X163068000Y-71882000D02*
X140462000Y-71882000D01*
X163068000Y-68326000D02*
X165608000Y-68326000D01*
X130302000Y-65532000D02*
X130302000Y-62992000D01*
X152908000Y-68326000D02*
X155448000Y-68326000D01*
X160528000Y-68326000D02*
X160528000Y-66548000D01*
X168148000Y-64516000D02*
X168148000Y-60706000D01*
X167132000Y-65532000D02*
X168148000Y-64516000D01*
X161544000Y-65532000D02*
X167132000Y-65532000D01*
X160528000Y-66548000D02*
X161544000Y-65532000D01*
X160528000Y-60706000D02*
X160528000Y-58674000D01*
X161290000Y-57912000D02*
X166878000Y-57912000D01*
X160528000Y-58674000D02*
X161290000Y-57912000D01*
X173228000Y-59944000D02*
X173228000Y-58674000D01*
X165608000Y-59182000D02*
X165608000Y-60706000D01*
X166878000Y-57912000D02*
X165608000Y-59182000D01*
X172466000Y-57912000D02*
X166878000Y-57912000D01*
X173228000Y-58674000D02*
X172466000Y-57912000D01*
X157988000Y-68326000D02*
X157988000Y-65786000D01*
X155448000Y-64262000D02*
X155448000Y-60706000D01*
X156464000Y-65278000D02*
X155448000Y-64262000D01*
X157480000Y-65278000D02*
X156464000Y-65278000D01*
X157988000Y-65786000D02*
X157480000Y-65278000D01*
X146558000Y-54864000D02*
X150602000Y-54864000D01*
X150602000Y-54864000D02*
X152352000Y-53114000D01*
X179324000Y-66040000D02*
X179324000Y-64516000D01*
X169672000Y-49784000D02*
X169672000Y-39116000D01*
X171196000Y-51308000D02*
X169672000Y-49784000D01*
X173482000Y-51308000D02*
X171196000Y-51308000D01*
X175768000Y-53594000D02*
X173482000Y-51308000D01*
X175768000Y-60960000D02*
X175768000Y-53594000D01*
X179324000Y-64516000D02*
X175768000Y-60960000D01*
X175052000Y-33446000D02*
X174670000Y-33446000D01*
X174670000Y-33446000D02*
X173482000Y-32258000D01*
X173482000Y-32258000D02*
X173482000Y-26670000D01*
X124968000Y-56642000D02*
X124206000Y-56642000D01*
X124206000Y-56642000D02*
X123444000Y-55880000D01*
X123444000Y-55880000D02*
X123444000Y-46228000D01*
X124968000Y-56642000D02*
X126492000Y-56642000D01*
X127762000Y-55372000D02*
X130302000Y-55372000D01*
X126492000Y-56642000D02*
X127762000Y-55372000D01*
M02*
