G04 #@! TF.FileFunction,Copper,L1,Top,Signal*
%FSLAX46Y46*%
G04 Gerber Fmt 4.6, Leading zero omitted, Abs format (unit mm)*
G04 Created by KiCad (PCBNEW 4.0.7-e2-6376~58~ubuntu16.04.1) date Sun Mar 17 12:09:54 2019*
%MOMM*%
%LPD*%
G01*
G04 APERTURE LIST*
%ADD10C,0.100000*%
%ADD11C,1.600000*%
%ADD12R,2.200000X2.200000*%
%ADD13O,2.200000X2.200000*%
%ADD14R,1.700000X1.700000*%
%ADD15O,1.700000X1.700000*%
%ADD16R,2.400000X2.400000*%
%ADD17C,2.400000*%
%ADD18C,2.500000*%
%ADD19C,3.000000*%
%ADD20C,1.000000*%
%ADD21R,1.000000X1.000000*%
%ADD22O,1.600000X1.600000*%
%ADD23R,2.400000X1.600000*%
%ADD24O,2.400000X1.600000*%
%ADD25C,1.524000*%
%ADD26R,1.600000X2.400000*%
%ADD27O,1.600000X2.400000*%
%ADD28R,1.600000X1.600000*%
%ADD29C,0.600000*%
%ADD30C,0.350000*%
%ADD31C,0.700000*%
G04 APERTURE END LIST*
D10*
D11*
X131572000Y-45720000D03*
X136572000Y-45720000D03*
X142494000Y-51816000D03*
X142494000Y-46816000D03*
X117348000Y-64008000D03*
X117348000Y-59008000D03*
X112776000Y-51308000D03*
X112776000Y-46308000D03*
D12*
X146558000Y-44704000D03*
D13*
X146558000Y-54864000D03*
D12*
X183642000Y-26670000D03*
D13*
X173482000Y-26670000D03*
D14*
X142748000Y-26924000D03*
D15*
X145288000Y-26924000D03*
D14*
X134620000Y-26924000D03*
D15*
X137160000Y-26924000D03*
D14*
X129794000Y-26924000D03*
D15*
X127254000Y-26924000D03*
D16*
X117348000Y-34544000D03*
D17*
X117348000Y-39544000D03*
D14*
X122174000Y-26924000D03*
D15*
X119634000Y-26924000D03*
D16*
X182626000Y-59690000D03*
D17*
X182626000Y-54690000D03*
D18*
X175052000Y-33446000D03*
D19*
X175052000Y-45646000D03*
X187102000Y-45696000D03*
D18*
X187052000Y-33446000D03*
D19*
X181102000Y-31496000D03*
D20*
X180594000Y-67310000D03*
X179324000Y-68580000D03*
D21*
X179324000Y-66040000D03*
D11*
X135128000Y-41656000D03*
D22*
X124968000Y-41656000D03*
D11*
X147574000Y-40894000D03*
D22*
X137414000Y-40894000D03*
D11*
X135128000Y-37338000D03*
D22*
X124968000Y-37338000D03*
D11*
X124968000Y-33274000D03*
D22*
X135128000Y-33274000D03*
D11*
X142748000Y-56134000D03*
D22*
X142748000Y-66294000D03*
D11*
X121158000Y-67056000D03*
D22*
X121158000Y-56896000D03*
D11*
X116078000Y-53594000D03*
D22*
X126238000Y-53594000D03*
D11*
X127762000Y-46228000D03*
D22*
X117602000Y-46228000D03*
D11*
X125984000Y-50292000D03*
D22*
X115824000Y-50292000D03*
D11*
X173228000Y-70104000D03*
D22*
X173228000Y-59944000D03*
D11*
X132842000Y-69850000D03*
D22*
X122682000Y-69850000D03*
D11*
X124968000Y-56642000D03*
D22*
X124968000Y-66802000D03*
D11*
X135890000Y-69850000D03*
D22*
X146050000Y-69850000D03*
D23*
X137922000Y-65532000D03*
D24*
X130302000Y-50292000D03*
X137922000Y-62992000D03*
X130302000Y-52832000D03*
X137922000Y-60452000D03*
X130302000Y-55372000D03*
X137922000Y-57912000D03*
X130302000Y-57912000D03*
X137922000Y-55372000D03*
X130302000Y-60452000D03*
X137922000Y-52832000D03*
X130302000Y-62992000D03*
X137922000Y-50292000D03*
X130302000Y-65532000D03*
D25*
X152352000Y-25114000D03*
X168352000Y-25114000D03*
X152352000Y-53114000D03*
X160352000Y-53114000D03*
D26*
X152908000Y-68326000D03*
D27*
X168148000Y-60706000D03*
X155448000Y-68326000D03*
X165608000Y-60706000D03*
X157988000Y-68326000D03*
X163068000Y-60706000D03*
X160528000Y-68326000D03*
X160528000Y-60706000D03*
X163068000Y-68326000D03*
X157988000Y-60706000D03*
X165608000Y-68326000D03*
X155448000Y-60706000D03*
X168148000Y-68326000D03*
X152908000Y-60706000D03*
D14*
X112776000Y-56134000D03*
D15*
X112776000Y-58674000D03*
X112776000Y-61214000D03*
D11*
X149098000Y-62230000D03*
X149098000Y-67230000D03*
D28*
X145796000Y-34036000D03*
D11*
X142296000Y-34036000D03*
D29*
X137160000Y-43942000D03*
X128016000Y-51308000D03*
X140208000Y-51308000D03*
X140208000Y-48768000D03*
X165354000Y-34036000D03*
X163068000Y-71882000D03*
X169672000Y-39116000D03*
X123444000Y-46228000D03*
D30*
X131572000Y-45720000D02*
X131572000Y-44958000D01*
X131572000Y-44958000D02*
X132588000Y-43942000D01*
X132588000Y-43942000D02*
X137160000Y-43942000D01*
X131572000Y-46736000D02*
X131572000Y-45720000D01*
X130810000Y-47498000D02*
X131572000Y-46736000D01*
X129286000Y-47498000D02*
X130810000Y-47498000D01*
X128016000Y-48768000D02*
X129286000Y-47498000D01*
X128016000Y-51308000D02*
X128016000Y-48768000D01*
X146050000Y-69850000D02*
X146050000Y-69342000D01*
X146050000Y-69342000D02*
X144526000Y-67818000D01*
X125984000Y-67818000D02*
X124968000Y-66802000D01*
X144526000Y-67818000D02*
X125984000Y-67818000D01*
X112776000Y-51308000D02*
X112776000Y-52832000D01*
X124206000Y-53594000D02*
X126238000Y-53594000D01*
X122936000Y-54864000D02*
X124206000Y-53594000D01*
X114808000Y-54864000D02*
X122936000Y-54864000D01*
X112776000Y-52832000D02*
X114808000Y-54864000D01*
X160352000Y-53114000D02*
X169192000Y-53114000D01*
X169672000Y-68326000D02*
X168148000Y-68326000D01*
X170434000Y-67564000D02*
X169672000Y-68326000D01*
X170434000Y-54356000D02*
X170434000Y-67564000D01*
X169192000Y-53114000D02*
X170434000Y-54356000D01*
X126238000Y-53594000D02*
X126238000Y-54610000D01*
X126238000Y-54610000D02*
X127762000Y-56134000D01*
X127762000Y-56134000D02*
X127762000Y-57150000D01*
X127762000Y-57150000D02*
X128524000Y-57912000D01*
X128524000Y-57912000D02*
X130302000Y-57912000D01*
X112776000Y-56134000D02*
X111760000Y-56134000D01*
X123444000Y-43180000D02*
X124968000Y-41656000D01*
X111252000Y-43180000D02*
X123444000Y-43180000D01*
X110490000Y-43942000D02*
X111252000Y-43180000D01*
X110490000Y-54864000D02*
X110490000Y-43942000D01*
X111760000Y-56134000D02*
X110490000Y-54864000D01*
X122682000Y-69850000D02*
X122682000Y-60198000D01*
X121492000Y-59008000D02*
X117348000Y-59008000D01*
X122682000Y-60198000D02*
X121492000Y-59008000D01*
X137414000Y-40894000D02*
X137414000Y-42926000D01*
X136144000Y-62992000D02*
X137922000Y-62992000D01*
X135128000Y-61976000D02*
X136144000Y-62992000D01*
X135128000Y-49784000D02*
X135128000Y-61976000D01*
X138430000Y-46482000D02*
X135128000Y-49784000D01*
X138430000Y-43942000D02*
X138430000Y-46482000D01*
X137414000Y-42926000D02*
X138430000Y-43942000D01*
X135128000Y-37338000D02*
X138430000Y-37338000D01*
X139446000Y-55372000D02*
X137922000Y-55372000D01*
X140208000Y-54610000D02*
X139446000Y-55372000D01*
X140208000Y-51308000D02*
X140208000Y-54610000D01*
X140208000Y-39116000D02*
X140208000Y-48768000D01*
X138430000Y-37338000D02*
X140208000Y-39116000D01*
D31*
X182626000Y-59690000D02*
X178816000Y-59690000D01*
X165354000Y-47752000D02*
X165354000Y-34036000D01*
X166624000Y-49022000D02*
X165354000Y-47752000D01*
X173736000Y-49022000D02*
X166624000Y-49022000D01*
X175768000Y-51054000D02*
X173736000Y-49022000D01*
X175768000Y-56642000D02*
X175768000Y-51054000D01*
X178816000Y-59690000D02*
X175768000Y-56642000D01*
X152352000Y-25114000D02*
X152352000Y-23452000D01*
X115244000Y-39544000D02*
X117348000Y-39544000D01*
X113900000Y-38200000D02*
X115244000Y-39544000D01*
X113900000Y-25900000D02*
X113900000Y-38200000D01*
X116800000Y-23000000D02*
X113900000Y-25900000D01*
X151900000Y-23000000D02*
X116800000Y-23000000D01*
X152352000Y-23452000D02*
X151900000Y-23000000D01*
X181102000Y-31496000D02*
X154178000Y-31496000D01*
X152352000Y-29670000D02*
X152352000Y-25114000D01*
X154178000Y-31496000D02*
X152352000Y-29670000D01*
D30*
X112776000Y-58674000D02*
X113284000Y-58674000D01*
X113284000Y-58674000D02*
X116586000Y-61976000D01*
X116586000Y-61976000D02*
X120142000Y-61976000D01*
X120142000Y-61976000D02*
X121158000Y-62992000D01*
X121158000Y-62992000D02*
X121158000Y-67056000D01*
X116078000Y-53594000D02*
X121666000Y-53594000D01*
X128270000Y-52832000D02*
X130302000Y-52832000D01*
X127508000Y-52070000D02*
X128270000Y-52832000D01*
X123190000Y-52070000D02*
X127508000Y-52070000D01*
X121666000Y-53594000D02*
X123190000Y-52070000D01*
X163068000Y-68326000D02*
X163068000Y-71882000D01*
X152908000Y-68326000D02*
X152908000Y-65786000D01*
X149352000Y-50292000D02*
X137922000Y-50292000D01*
X150876000Y-51816000D02*
X149352000Y-50292000D01*
X150876000Y-63754000D02*
X150876000Y-51816000D01*
X152908000Y-65786000D02*
X150876000Y-63754000D01*
X145796000Y-34036000D02*
X150622000Y-34036000D01*
X152352000Y-35766000D02*
X152352000Y-53114000D01*
X150622000Y-34036000D02*
X152352000Y-35766000D01*
X170942000Y-33528000D02*
X174970000Y-33528000D01*
X169672000Y-34798000D02*
X170942000Y-33528000D01*
X169672000Y-39116000D02*
X169672000Y-34798000D01*
X174970000Y-33528000D02*
X175052000Y-33446000D01*
X123444000Y-46228000D02*
X127762000Y-46228000D01*
M02*
