M48
;DRILL file {KiCad 4.0.7-e2-6376~58~ubuntu16.04.1} date Sun Mar 17 12:09:59 2019
;FORMAT={-:-/ absolute / inch / decimal}
FMAT,2
INCH,TZ
T1C0.016
T2C0.024
T3C0.031
T4C0.039
T5C0.043
T6C0.051
T7C0.058
%
G90
G05
M72
T1
X4.86Y-1.82
X5.04Y-2.02
X5.4Y-1.73
X5.52Y-1.92
X5.52Y-2.02
X6.42Y-2.83
X6.51Y-1.34
X6.68Y-1.54
T2
X7.06Y-2.6
X7.06Y-2.7
X7.11Y-2.65
T3
X4.44Y-1.8231
X4.44Y-2.02
X4.56Y-1.98
X4.57Y-2.11
X4.62Y-2.3231
X4.62Y-2.52
X4.63Y-1.82
X4.77Y-2.24
X4.77Y-2.64
X4.83Y-2.75
X4.92Y-1.31
X4.92Y-1.47
X4.92Y-1.64
X4.92Y-2.23
X4.92Y-2.63
X4.96Y-1.98
X4.97Y-2.11
X5.03Y-1.82
X5.13Y-1.98
X5.13Y-2.08
X5.13Y-2.18
X5.13Y-2.28
X5.13Y-2.38
X5.13Y-2.48
X5.13Y-2.58
X5.18Y-1.8
X5.23Y-2.75
X5.32Y-1.31
X5.32Y-1.47
X5.32Y-1.64
X5.35Y-2.75
X5.3769Y-1.8
X5.41Y-1.61
X5.43Y-1.98
X5.43Y-2.08
X5.43Y-2.18
X5.43Y-2.28
X5.43Y-2.38
X5.43Y-2.48
X5.43Y-2.58
X5.6022Y-1.34
X5.61Y-1.8431
X5.61Y-2.04
X5.62Y-2.21
X5.62Y-2.61
X5.74Y-1.34
X5.75Y-2.75
X5.81Y-1.61
X5.87Y-2.45
X5.87Y-2.6469
X6.02Y-2.39
X6.02Y-2.69
X6.12Y-2.39
X6.12Y-2.69
X6.22Y-2.39
X6.22Y-2.69
X6.32Y-2.39
X6.32Y-2.69
X6.42Y-2.39
X6.42Y-2.69
X6.52Y-2.39
X6.52Y-2.69
X6.62Y-2.39
X6.62Y-2.69
X6.82Y-2.36
X6.82Y-2.76
T4
X4.44Y-2.21
X4.44Y-2.31
X4.44Y-2.41
X4.71Y-1.06
X4.81Y-1.06
X5.01Y-1.06
X5.11Y-1.06
X5.3Y-1.06
X5.4Y-1.06
X5.62Y-1.06
X5.72Y-1.06
X5.9981Y-0.9887
X5.9981Y-2.0911
X6.3131Y-2.0911
X6.628Y-0.9887
X6.8918Y-1.3168
X7.3643Y-1.3168
T5
X5.77Y-1.76
X5.77Y-2.16
X6.83Y-1.05
X7.23Y-1.05
T6
X6.8918Y-1.7971
X7.13Y-1.24
X7.3662Y-1.7991
T7
X4.62Y-1.36
X4.62Y-1.5569
X7.19Y-2.1531
X7.19Y-2.35
T0
M30
